<mxfile>
    <diagram id="VK2dpPIPwZUJdYUIHRvk" name="Page-1">
        <mxGraphModel dx="1163" dy="550" grid="1" gridSize="10" guides="1" tooltips="1" connect="1" arrows="1" fold="1" page="1" pageScale="1" pageWidth="850" pageHeight="1100" math="0" shadow="0">
            <root>
                <mxCell id="0"/>
                <mxCell id="1" parent="0"/>
                <mxCell id="vLkGN0Acrg2rlOzNhJB7-1" value="" style="rounded=0;whiteSpace=wrap;html=1;dashed=1;" parent="1" vertex="1">
                    <mxGeometry x="310" y="120" width="230" height="350" as="geometry"/>
                </mxCell>
                <mxCell id="vLkGN0Acrg2rlOzNhJB7-2" style="edgeStyle=orthogonalEdgeStyle;rounded=0;orthogonalLoop=1;jettySize=auto;html=1;exitX=0.5;exitY=1;exitDx=0;exitDy=0;" parent="1" source="vLkGN0Acrg2rlOzNhJB7-1" target="vLkGN0Acrg2rlOzNhJB7-1" edge="1">
                    <mxGeometry relative="1" as="geometry"/>
                </mxCell>
                <mxCell id="vLkGN0Acrg2rlOzNhJB7-4" value="&lt;h1&gt;Submit number at api/fizzbuzz&lt;/h1&gt;" style="text;html=1;strokeColor=none;fillColor=none;spacing=5;spacingTop=-20;whiteSpace=wrap;overflow=hidden;rounded=0;dashed=1;" parent="1" vertex="1">
                    <mxGeometry x="260" y="50" width="360" height="40" as="geometry"/>
                </mxCell>
                <mxCell id="vLkGN0Acrg2rlOzNhJB7-9" value="" style="edgeStyle=orthogonalEdgeStyle;rounded=0;orthogonalLoop=1;jettySize=auto;html=1;entryX=0;entryY=0.5;entryDx=0;entryDy=0;strokeWidth=3;" parent="1" source="vLkGN0Acrg2rlOzNhJB7-5" target="vLkGN0Acrg2rlOzNhJB7-6" edge="1">
                    <mxGeometry relative="1" as="geometry"/>
                </mxCell>
                <mxCell id="vLkGN0Acrg2rlOzNhJB7-5" value="Developer Dave" style="shape=umlActor;verticalLabelPosition=bottom;verticalAlign=top;html=1;outlineConnect=0;dashed=1;" parent="1" vertex="1">
                    <mxGeometry x="230" y="200" width="30" height="60" as="geometry"/>
                </mxCell>
                <mxCell id="vLkGN0Acrg2rlOzNhJB7-8" value="" style="edgeStyle=orthogonalEdgeStyle;rounded=0;orthogonalLoop=1;jettySize=auto;html=1;fillColor=#60a917;strokeColor=#2D7600;strokeWidth=3;" parent="1" source="vLkGN0Acrg2rlOzNhJB7-6" target="vLkGN0Acrg2rlOzNhJB7-7" edge="1">
                    <mxGeometry relative="1" as="geometry"/>
                </mxCell>
                <mxCell id="vLkGN0Acrg2rlOzNhJB7-6" value="GET api/fizzbuzz/n" style="rounded=1;whiteSpace=wrap;html=1;fillColor=#f5f5f5;strokeColor=#666666;fontColor=#333333;" parent="1" vertex="1">
                    <mxGeometry x="380" y="200" width="120" height="60" as="geometry"/>
                </mxCell>
                <mxCell id="vLkGN0Acrg2rlOzNhJB7-10" style="edgeStyle=orthogonalEdgeStyle;rounded=0;orthogonalLoop=1;jettySize=auto;html=1;strokeWidth=3;exitX=0;exitY=0.5;exitDx=0;exitDy=0;" parent="1" source="vLkGN0Acrg2rlOzNhJB7-7" edge="1">
                    <mxGeometry relative="1" as="geometry">
                        <mxPoint x="260" y="250" as="targetPoint"/>
                        <Array as="points">
                            <mxPoint x="300" y="370"/>
                            <mxPoint x="300" y="250"/>
                        </Array>
                    </mxGeometry>
                </mxCell>
                <mxCell id="vLkGN0Acrg2rlOzNhJB7-7" value="Return fizzbuzz answer" style="whiteSpace=wrap;html=1;rounded=1;fontColor=#333333;strokeColor=#666666;fillColor=#f5f5f5;" parent="1" vertex="1">
                    <mxGeometry x="380" y="340" width="120" height="60" as="geometry"/>
                </mxCell>
            </root>
        </mxGraphModel>
    </diagram>
</mxfile>